
<svg xmlns="http://www.w3.org/2000/svg" version="1.1" width="100%" height="100%" viewBox="0 0 1000 1000" xmlns:xlink="http://www.w3.org/1999/xlink">
<g><path style="opacity:1" fill="#fefefe" d="M -0.5,-0.5 C 332.833,-0.5 666.167,-0.5 999.5,-0.5C 999.5,332.833 999.5,666.167 999.5,999.5C 666.167,999.5 332.833,999.5 -0.5,999.5C -0.5,666.167 -0.5,332.833 -0.5,-0.5 Z"/></g>
<g><path style="opacity:1" fill="#050505" d="M 191.5,327.5 C 225.241,325.088 243.908,340.588 247.5,374C 247.441,375.436 247.108,376.769 246.5,378C 242.12,379.178 237.787,380.512 233.5,382C 230.773,382.818 228.106,382.652 225.5,381.5C 224.395,372.747 221.895,364.414 218,356.5C 208.213,347.76 197.38,346.26 185.5,352C 178.614,358.36 176.114,366.193 178,375.5C 178.639,381.067 180.639,386.067 184,390.5C 200.324,404.491 216.324,418.825 232,433.5C 251.505,453.86 256.171,477.193 246,503.5C 238.627,515.869 227.794,523.036 213.5,525C 176.256,527.765 156.256,510.432 153.5,473C 153.439,470.194 154.772,468.527 157.5,468C 163.637,465.546 169.971,464.546 176.5,465C 177.821,474.448 180.321,483.614 184,492.5C 191.927,504.762 202.761,507.929 216.5,502C 221.432,499.314 224.265,495.148 225,489.5C 227.147,478.274 225.147,467.941 219,458.5C 216.04,455.387 213.206,452.22 210.5,449C 194.985,435.814 179.818,422.314 165,408.5C 155.373,394.723 151.707,379.39 154,362.5C 158.677,342.32 171.177,330.653 191.5,327.5 Z"/></g>
<g><path style="opacity:1" fill="#020202" d="M 627.5,327.5 C 665.262,323.457 686.095,340.124 690,377.5C 690.667,407.833 690.667,438.167 690,468.5C 689.009,510.827 667.509,529.66 625.5,525C 611.915,523.801 601.415,517.634 594,506.5C 590.207,499.58 587.54,492.246 586,484.5C 584.893,464.859 584.393,445.193 584.5,425.5C 584.667,408.833 584.833,392.167 585,375.5C 586.534,347.993 600.7,331.993 627.5,327.5 Z"/></g>
<g><path style="opacity:1" fill="#030303" d="M 327.5,329.5 C 335.507,329.334 343.507,329.5 351.5,330C 352,330.5 352.5,331 353,331.5C 367.467,395.304 380.967,459.304 393.5,523.5C 385.248,523.816 377.081,523.482 369,522.5C 366.205,506.555 363.038,490.721 359.5,475C 346.504,474.5 333.504,474.333 320.5,474.5C 317.144,490.445 313.978,506.445 311,522.5C 303.246,523.647 295.413,523.814 287.5,523C 286.903,521.938 286.57,520.772 286.5,519.5C 289.63,504.519 292.63,489.519 295.5,474.5C 293.5,474.5 291.5,474.5 289.5,474.5C 289.939,468.909 290.939,463.409 292.5,458C 292.905,457.055 293.572,456.388 294.5,456C 296.473,455.505 298.473,455.338 300.5,455.5C 309.189,413.413 318.189,371.413 327.5,329.5 Z"/></g>
<g><path style="opacity:1" fill="#040404" d="M 439.5,329.5 C 456.17,329.333 472.837,329.5 489.5,330C 519.729,331.396 534.729,347.229 534.5,377.5C 535.477,391.125 531.477,402.958 522.5,413C 518.205,415.981 513.539,418.148 508.5,419.5C 526.776,424.611 536.943,436.611 539,455.5C 541.408,472.715 538.742,489.048 531,504.5C 522.556,516.559 510.889,522.892 496,523.5C 492.206,521.058 488.373,518.558 484.5,516C 471.032,511.968 458.699,514.302 447.5,523C 444.571,523.777 441.737,523.61 439,522.5C 438.171,458.096 438.337,393.763 439.5,329.5 Z"/></g>
<g><path style="opacity:1" fill="#060606" d="M 743.5,329.5 C 759.837,329.333 776.17,329.5 792.5,330C 820.505,332.337 835.338,347.504 837,375.5C 837.96,390.087 834.96,403.754 828,416.5C 824.032,420.983 819.198,423.983 813.5,425.5C 821.957,456.873 830.623,488.206 839.5,519.5C 839.32,520.554 838.987,521.554 838.5,522.5C 830.855,523.665 823.188,523.831 815.5,523C 815,522.5 814.5,522 814,521.5C 806.302,492.377 798.136,463.377 789.5,434.5C 788.975,433.808 788.308,433.308 787.5,433C 781.175,432.5 774.842,432.334 768.5,432.5C 768.667,462.169 768.5,491.835 768,521.5C 763.754,522.799 759.254,523.466 754.5,523.5C 749.746,523.466 745.246,522.799 741,521.5C 740.333,458.167 740.333,394.833 741,331.5C 741.995,330.934 742.828,330.267 743.5,329.5 Z"/></g>
<g><path style="opacity:1" fill="#8e8e8e" d="M 787.5,349.5 C 781.108,349.249 774.775,349.582 768.5,350.5C 768.611,349.883 768.944,349.383 769.5,349C 775.681,348.181 781.681,348.347 787.5,349.5 Z"/></g>
<g><path style="opacity:1" fill="#fbfbfb" d="M 631.5,348.5 C 651.421,346.592 661.921,355.592 663,375.5C 663.667,409.167 663.667,442.833 663,476.5C 660.745,501.397 647.579,509.897 623.5,502C 621.04,500.542 618.873,498.709 617,496.5C 614.558,491.067 612.892,485.4 612,479.5C 611.333,443.5 611.333,407.5 612,371.5C 612.605,363.28 616.105,356.78 622.5,352C 625.571,350.704 628.571,349.538 631.5,348.5 Z"/></g>
<g><path style="opacity:1" fill="#fcfcfc" d="M 787.5,349.5 C 799.569,349.934 807.069,355.934 810,367.5C 816.975,401.846 803.309,416.846 769,412.5C 768.5,391.836 768.333,371.169 768.5,350.5C 774.775,349.582 781.108,349.249 787.5,349.5 Z"/></g>
<g><path style="opacity:1" fill="#fbfbfb" d="M 466.5,349.5 C 476.954,348.989 487.287,349.823 497.5,352C 506.311,355.438 510.811,361.938 511,371.5C 513.594,404.555 498.594,417.222 466,409.5C 465.18,389.427 465.346,369.427 466.5,349.5 Z"/></g>
<g><path style="opacity:1" fill="#f6f6f6" d="M 338.5,373.5 C 339.5,373.5 340.5,373.5 341.5,373.5C 346.6,400.769 351.267,428.103 355.5,455.5C 345.251,455.819 335.084,455.486 325,454.5C 329.059,427.48 333.559,400.48 338.5,373.5 Z"/></g>
<g><path style="opacity:1" fill="#fcfcfc" d="M 466.5,431.5 C 476.224,431.141 485.891,431.641 495.5,433C 505.415,437.256 511.248,444.756 513,455.5C 520.385,494.447 504.719,510.447 466,503.5C 465.178,479.428 465.344,455.428 466.5,431.5 Z"/></g>
<g><path style="opacity:1" fill="#080808" d="M 540.5,634.5 C 540.984,641.566 538.65,647.4 533.5,652C 526.667,653.167 523.833,650.333 525,643.5C 529.25,640.066 529.416,636.566 525.5,633C 522.581,632.448 519.914,633.115 517.5,635C 502.29,646.066 496.29,660.732 499.5,679C 503.738,679.823 507.738,679.156 511.5,677C 528.329,668.004 541.329,655.171 550.5,638.5C 556.116,631.054 563.116,625.221 571.5,621C 580.58,618.391 587.747,620.891 593,628.5C 594.36,625.265 596.527,622.765 599.5,621C 606.18,620.073 608.68,622.906 607,629.5C 600.004,640.493 594.337,652.16 590,664.5C 589.121,669.287 589.455,673.953 591,678.5C 593.545,679.797 596.045,679.631 598.5,678C 614.746,665.342 625.912,649.175 632,629.5C 646.468,597.395 665.302,568.228 688.5,542C 693.965,536.431 700.299,532.098 707.5,529C 720.866,527.032 725.699,532.532 722,545.5C 704.732,581.753 683.066,615.086 657,645.5C 650.988,652.357 643.488,656.357 634.5,657.5C 632.684,664.403 631.851,671.403 632,678.5C 633.029,681.875 635.196,683.042 638.5,682C 647.772,678.528 655.439,672.861 661.5,665C 669.009,663.267 672.176,666.101 671,673.5C 663.153,682.688 653.653,689.521 642.5,694C 627.954,696.461 620.121,690.294 619,675.5C 613.189,683.312 605.689,688.812 596.5,692C 587.649,693.322 581.482,689.822 578,681.5C 571.256,688.459 563.089,691.959 553.5,692C 543.988,689.198 539.155,682.698 539,672.5C 528.71,683.286 516.21,689.953 501.5,692.5C 489.689,690.006 484.355,682.672 485.5,670.5C 480.228,672.424 474.895,674.258 469.5,676C 463.031,685.571 454.031,691.071 442.5,692.5C 438.655,692.052 435.155,690.719 432,688.5C 430.08,685.661 428.413,682.661 427,679.5C 425.361,656.282 433.861,637.782 452.5,624C 469.927,616.211 479.927,621.711 482.5,640.5C 481.545,646.55 480.712,652.55 480,658.5C 483.966,655.536 487.633,652.203 491,648.5C 496.106,635.728 504.939,626.561 517.5,621C 529.533,618.342 537.2,622.842 540.5,634.5 Z"/></g>
<g><path style="opacity:1" fill="#f2f2f2" d="M 708.5,541.5 C 709.376,541.369 710.043,541.702 710.5,542.5C 694.939,571.958 677.106,599.958 657,626.5C 652.667,632.167 647.667,637.167 642,641.5C 645.186,631.115 649.519,621.115 655,611.5C 664.822,594.02 675.822,577.354 688,561.5C 694.066,553.932 700.9,547.266 708.5,541.5 Z"/></g>
<g><path style="opacity:1" fill="#f4f4f4" d="M 462.5,632.5 C 465.547,631.855 467.713,632.855 469,635.5C 470.44,645.678 468.274,655.011 462.5,663.5C 448.732,667.563 443.898,662.897 448,649.5C 450.569,641.774 455.402,636.107 462.5,632.5 Z"/></g>
<g><path style="opacity:1" fill="#f6f6f6" d="M 540.5,634.5 C 541.41,636.019 542.243,637.685 543,639.5C 543.667,636.833 544.333,636.833 545,639.5C 545.333,636.5 547,634.833 550,634.5C 549.669,636.019 549.836,637.352 550.5,638.5C 541.329,655.171 528.329,668.004 511.5,677C 507.738,679.156 503.738,679.823 499.5,679C 496.29,660.732 502.29,646.066 517.5,635C 519.914,633.115 522.581,632.448 525.5,633C 529.416,636.566 529.25,640.066 525,643.5C 523.833,650.333 526.667,653.167 533.5,652C 538.65,647.4 540.984,641.566 540.5,634.5 Z"/></g>
<g><path style="opacity:1" fill="#f6f6f6" d="M 575.5,632.5 C 578.368,632.085 580.535,633.085 582,635.5C 583.291,654.756 575.791,669.256 559.5,679C 557.421,679.808 555.421,679.641 553.5,678.5C 552.219,675.989 551.552,673.322 551.5,670.5C 553.575,653.821 561.575,641.155 575.5,632.5 Z"/></g>
<g><path style="opacity:1" fill="#020202" d="M 156.5,637.5 C 202.168,637.333 247.835,637.5 293.5,638C 296.379,639.666 297.212,642.166 296,645.5C 295.25,646.126 294.416,646.626 293.5,647C 247.496,647.833 201.496,647.667 155.5,646.5C 152.76,643.135 153.093,640.135 156.5,637.5 Z"/></g>
<g><path style="opacity:1" fill="#010101" d="M 700.5,637.5 C 746.168,637.333 791.835,637.5 837.5,638C 840.379,639.666 841.212,642.166 840,645.5C 839.25,646.126 838.416,646.626 837.5,647C 791.833,647.667 746.167,647.667 700.5,647C 696.581,643.84 696.581,640.673 700.5,637.5 Z"/></g>
<g><path style="opacity:1" fill="#080808" d="M 468.5,519.5 C 488.369,519.546 494.536,528.88 487,547.5C 469.348,582.588 440.848,601.588 401.5,604.5C 381.742,630.348 361.742,656.014 341.5,681.5C 356.399,683.113 371.065,685.946 385.5,690C 400.208,695.19 414.542,701.19 428.5,708C 447.368,716.984 466.035,716.651 484.5,707C 492.807,706.296 495.141,709.629 491.5,717C 470.786,728.055 449.453,729.389 427.5,721C 410.609,712.887 393.276,705.887 375.5,700C 360.755,695.893 345.755,694.226 330.5,695C 316.944,712.228 302.278,728.561 286.5,744C 277.505,750.387 267.505,753.887 256.5,754.5C 237.627,753.798 229.46,744.131 232,725.5C 237.848,709.987 248.681,699.487 264.5,694C 283.979,687.641 303.979,683.641 324.5,682C 346.01,656.47 366.677,630.303 386.5,603.5C 379.698,602.199 373.032,600.365 366.5,598C 345.396,586.137 323.063,582.803 299.5,588C 290.411,591.378 281.744,595.545 273.5,600.5C 266.914,597.907 265.914,593.907 270.5,588.5C 293.209,573.106 317.876,568.939 344.5,576C 355.147,579.155 365.48,583.155 375.5,588C 382.347,590.305 389.347,591.305 396.5,591C 410.361,571.466 425.361,552.8 441.5,535C 449.366,527.738 458.366,522.571 468.5,519.5 Z"/></g>
<g><path style="opacity:1" fill="#f6f6f6" d="M 468.5,532.5 C 471.5,532.5 474.5,532.5 477.5,532.5C 477.417,538.682 475.583,544.349 472,549.5C 458.566,571.232 439.233,584.898 414,590.5C 414.044,588.721 414.711,587.055 416,585.5C 424.242,575.347 432.242,565.014 440,554.5C 447.89,544.836 457.39,537.503 468.5,532.5 Z"/></g>
<g><path style="opacity:1" fill="#ebebeb" d="M 438.5,671.5 C 442.095,674.129 446.095,675.963 450.5,677C 443.028,681.852 439.028,680.019 438.5,671.5 Z"/></g>
<g><path style="opacity:1" fill="#f7f7f7" d="M 303.5,696.5 C 306.518,696.335 309.518,696.502 312.5,697C 302.215,710.285 290.882,722.619 278.5,734C 270.448,739.929 261.448,742.596 251.5,742C 243.582,739.379 241.415,734.213 245,726.5C 251.299,715.083 260.799,707.583 273.5,704C 283.469,700.912 293.469,698.412 303.5,696.5 Z"/></g>
</svg>
